<mxfile host="app.diagrams.net" modified="2021-10-22T11:41:22.532Z" agent="5.0 (Macintosh; Intel Mac OS X 10_15_7) AppleWebKit/605.1.15 (KHTML, like Gecko) Version/15.0 Safari/605.1.15" etag="N3JvQDNdXvC8jBBiwIEu" version="15.5.8" type="github">
  <diagram id="EDZFKOc_3pfCLOzYpCOF" name="Page-1">
    <mxGraphModel dx="3272" dy="2174" grid="1" gridSize="10" guides="1" tooltips="1" connect="1" arrows="1" fold="1" page="1" pageScale="1" pageWidth="850" pageHeight="1100" math="0" shadow="0">
      <root>
        <mxCell id="0" />
        <mxCell id="1" parent="0" />
        <mxCell id="-cxjXy8tfc9ZED2PCrBA-7" value="一人一人ジャンル、空いてる日を載せる" style="edgeStyle=orthogonalEdgeStyle;rounded=0;orthogonalLoop=1;jettySize=auto;html=1;entryX=0.5;entryY=0;entryDx=0;entryDy=0;" edge="1" parent="1" source="-9M-hio-9B55uMiMHV9w-2" target="-9M-hio-9B55uMiMHV9w-6">
          <mxGeometry relative="1" as="geometry">
            <Array as="points">
              <mxPoint x="265" y="250" />
              <mxPoint x="265" y="250" />
            </Array>
          </mxGeometry>
        </mxCell>
        <mxCell id="-9M-hio-9B55uMiMHV9w-2" value="グループA" style="rounded=0;whiteSpace=wrap;html=1;" parent="1" vertex="1">
          <mxGeometry x="130" y="-110" width="270" height="250" as="geometry" />
        </mxCell>
        <mxCell id="-cxjXy8tfc9ZED2PCrBA-14" value="共通の趣味、空いてる日を発見する" style="edgeStyle=orthogonalEdgeStyle;rounded=0;orthogonalLoop=1;jettySize=auto;html=1;exitX=0;exitY=0.75;exitDx=0;exitDy=0;" edge="1" parent="1" source="-9M-hio-9B55uMiMHV9w-6">
          <mxGeometry relative="1" as="geometry">
            <mxPoint x="-60" y="395" as="targetPoint" />
          </mxGeometry>
        </mxCell>
        <mxCell id="-9M-hio-9B55uMiMHV9w-6" value="hitoffle" style="whiteSpace=wrap;html=1;aspect=fixed;" parent="1" vertex="1">
          <mxGeometry x="195" y="290" width="140" height="140" as="geometry" />
        </mxCell>
        <mxCell id="-9M-hio-9B55uMiMHV9w-14" value="YES" style="edgeStyle=orthogonalEdgeStyle;rounded=0;orthogonalLoop=1;jettySize=auto;html=1;entryX=0;entryY=0.5;entryDx=0;entryDy=0;" parent="1" source="-9M-hio-9B55uMiMHV9w-16" target="-9M-hio-9B55uMiMHV9w-25" edge="1">
          <mxGeometry relative="1" as="geometry" />
        </mxCell>
        <mxCell id="-9M-hio-9B55uMiMHV9w-15" value="NO" style="edgeStyle=orthogonalEdgeStyle;rounded=0;orthogonalLoop=1;jettySize=auto;html=1;entryX=0.5;entryY=1;entryDx=0;entryDy=0;" parent="1" source="-9M-hio-9B55uMiMHV9w-16" target="-9M-hio-9B55uMiMHV9w-36" edge="1">
          <mxGeometry relative="1" as="geometry">
            <mxPoint x="919.9600000000003" y="420.99" as="targetPoint" />
            <Array as="points">
              <mxPoint x="870" y="540" />
            </Array>
          </mxGeometry>
        </mxCell>
        <mxCell id="-9M-hio-9B55uMiMHV9w-16" value="ユーザーA" style="rounded=0;whiteSpace=wrap;html=1;" parent="1" vertex="1">
          <mxGeometry x="680" y="510" width="120" height="60" as="geometry" />
        </mxCell>
        <mxCell id="-9M-hio-9B55uMiMHV9w-17" value="YES" style="edgeStyle=orthogonalEdgeStyle;rounded=0;orthogonalLoop=1;jettySize=auto;html=1;entryX=0;entryY=0.5;entryDx=0;entryDy=0;" parent="1" source="-9M-hio-9B55uMiMHV9w-19" target="-9M-hio-9B55uMiMHV9w-25" edge="1">
          <mxGeometry relative="1" as="geometry" />
        </mxCell>
        <mxCell id="-9M-hio-9B55uMiMHV9w-18" style="edgeStyle=orthogonalEdgeStyle;rounded=0;orthogonalLoop=1;jettySize=auto;html=1;entryX=0;entryY=0.5;entryDx=0;entryDy=0;" parent="1" source="-9M-hio-9B55uMiMHV9w-19" target="-9M-hio-9B55uMiMHV9w-34" edge="1">
          <mxGeometry relative="1" as="geometry" />
        </mxCell>
        <mxCell id="-9M-hio-9B55uMiMHV9w-19" value="ユーザーB" style="rounded=0;whiteSpace=wrap;html=1;" parent="1" vertex="1">
          <mxGeometry x="680" y="620" width="120" height="60" as="geometry" />
        </mxCell>
        <mxCell id="-9M-hio-9B55uMiMHV9w-20" value="スポーツ&lt;br&gt;１０月１２日&lt;br&gt;で参加しますか？" style="text;html=1;strokeColor=none;fillColor=none;align=center;verticalAlign=middle;whiteSpace=wrap;rounded=0;" parent="1" vertex="1">
          <mxGeometry x="510" y="470" width="160" height="70" as="geometry" />
        </mxCell>
        <mxCell id="-9M-hio-9B55uMiMHV9w-21" value="スポーツ&lt;br&gt;１０月１２日&lt;br&gt;で参加しますか？" style="text;html=1;strokeColor=none;fillColor=none;align=center;verticalAlign=middle;whiteSpace=wrap;rounded=0;" parent="1" vertex="1">
          <mxGeometry x="510" y="650" width="160" height="70" as="geometry" />
        </mxCell>
        <mxCell id="-9M-hio-9B55uMiMHV9w-22" value="ユーザーA、ユーザーB（二人分）申し込み" style="edgeStyle=orthogonalEdgeStyle;rounded=0;orthogonalLoop=1;jettySize=auto;html=1;exitX=1;exitY=0.25;exitDx=0;exitDy=0;entryX=0;entryY=0.25;entryDx=0;entryDy=0;" parent="1" source="-9M-hio-9B55uMiMHV9w-25" target="-9M-hio-9B55uMiMHV9w-27" edge="1">
          <mxGeometry relative="1" as="geometry" />
        </mxCell>
        <mxCell id="-9M-hio-9B55uMiMHV9w-23" style="edgeStyle=orthogonalEdgeStyle;rounded=0;orthogonalLoop=1;jettySize=auto;html=1;" parent="1" source="-9M-hio-9B55uMiMHV9w-25" target="-9M-hio-9B55uMiMHV9w-29" edge="1">
          <mxGeometry relative="1" as="geometry" />
        </mxCell>
        <mxCell id="-9M-hio-9B55uMiMHV9w-24" value="通知" style="edgeStyle=orthogonalEdgeStyle;rounded=0;orthogonalLoop=1;jettySize=auto;html=1;entryX=0.5;entryY=0;entryDx=0;entryDy=0;" parent="1" source="-9M-hio-9B55uMiMHV9w-25" target="-9M-hio-9B55uMiMHV9w-31" edge="1">
          <mxGeometry relative="1" as="geometry">
            <Array as="points">
              <mxPoint x="1145" y="750" />
              <mxPoint x="1340" y="750" />
            </Array>
          </mxGeometry>
        </mxCell>
        <mxCell id="-9M-hio-9B55uMiMHV9w-25" value="traveri" style="whiteSpace=wrap;html=1;aspect=fixed;" parent="1" vertex="1">
          <mxGeometry x="1080" y="530" width="130" height="130" as="geometry" />
        </mxCell>
        <mxCell id="-9M-hio-9B55uMiMHV9w-26" value="申し込み完了&lt;br&gt;スポーツ&lt;br&gt;代々木公園&lt;br&gt;１０月１２日&lt;br&gt;必要なもの：&lt;br&gt;タウル" style="edgeStyle=orthogonalEdgeStyle;rounded=0;orthogonalLoop=1;jettySize=auto;html=1;exitX=0;exitY=0.75;exitDx=0;exitDy=0;entryX=1;entryY=0.75;entryDx=0;entryDy=0;" parent="1" source="-9M-hio-9B55uMiMHV9w-27" target="-9M-hio-9B55uMiMHV9w-25" edge="1">
          <mxGeometry relative="1" as="geometry" />
        </mxCell>
        <mxCell id="-9M-hio-9B55uMiMHV9w-27" value="体験提供会社" style="whiteSpace=wrap;html=1;aspect=fixed;" parent="1" vertex="1">
          <mxGeometry x="1540" y="530" width="130" height="130" as="geometry" />
        </mxCell>
        <mxCell id="-9M-hio-9B55uMiMHV9w-28" style="edgeStyle=orthogonalEdgeStyle;rounded=0;orthogonalLoop=1;jettySize=auto;html=1;entryX=0.5;entryY=0;entryDx=0;entryDy=0;" parent="1" source="-9M-hio-9B55uMiMHV9w-29" target="-9M-hio-9B55uMiMHV9w-32" edge="1">
          <mxGeometry relative="1" as="geometry" />
        </mxCell>
        <mxCell id="-9M-hio-9B55uMiMHV9w-29" value="ユーザーA" style="rounded=0;whiteSpace=wrap;html=1;" parent="1" vertex="1">
          <mxGeometry x="1085" y="840" width="120" height="60" as="geometry" />
        </mxCell>
        <mxCell id="-9M-hio-9B55uMiMHV9w-30" style="edgeStyle=orthogonalEdgeStyle;rounded=0;orthogonalLoop=1;jettySize=auto;html=1;entryX=0.5;entryY=0;entryDx=0;entryDy=0;" parent="1" source="-9M-hio-9B55uMiMHV9w-31" target="-9M-hio-9B55uMiMHV9w-32" edge="1">
          <mxGeometry relative="1" as="geometry" />
        </mxCell>
        <mxCell id="-9M-hio-9B55uMiMHV9w-31" value="ユーザーB" style="rounded=0;whiteSpace=wrap;html=1;" parent="1" vertex="1">
          <mxGeometry x="1280" y="840" width="120" height="60" as="geometry" />
        </mxCell>
        <mxCell id="-9M-hio-9B55uMiMHV9w-32" value="イベント参加！" style="shape=process;whiteSpace=wrap;html=1;backgroundOutline=1;" parent="1" vertex="1">
          <mxGeometry x="1180" y="970" width="120" height="60" as="geometry" />
        </mxCell>
        <mxCell id="-9M-hio-9B55uMiMHV9w-33" value="マッチングペア" style="swimlane;fontStyle=0;childLayout=stackLayout;horizontal=1;startSize=30;horizontalStack=0;resizeParent=1;resizeParentMax=0;resizeLast=0;collapsible=1;marginBottom=0;" parent="1" vertex="1">
          <mxGeometry x="810" y="760" width="210" height="90" as="geometry" />
        </mxCell>
        <mxCell id="-9M-hio-9B55uMiMHV9w-34" value="ユーザーB" style="text;strokeColor=none;fillColor=none;align=left;verticalAlign=middle;spacingLeft=4;spacingRight=4;overflow=hidden;points=[[0,0.5],[1,0.5]];portConstraint=eastwest;rotatable=0;" parent="-9M-hio-9B55uMiMHV9w-33" vertex="1">
          <mxGeometry y="30" width="210" height="30" as="geometry" />
        </mxCell>
        <mxCell id="-9M-hio-9B55uMiMHV9w-35" value="ユーザーC" style="text;strokeColor=none;fillColor=none;align=left;verticalAlign=middle;spacingLeft=4;spacingRight=4;overflow=hidden;points=[[0,0.5],[1,0.5]];portConstraint=eastwest;rotatable=0;" parent="-9M-hio-9B55uMiMHV9w-33" vertex="1">
          <mxGeometry y="60" width="210" height="30" as="geometry" />
        </mxCell>
        <mxCell id="-9M-hio-9B55uMiMHV9w-36" value="参加破棄：マッチングしづらくなる" style="rounded=0;whiteSpace=wrap;html=1;" parent="1" vertex="1">
          <mxGeometry x="810" y="330" width="120" height="60" as="geometry" />
        </mxCell>
        <mxCell id="-9M-hio-9B55uMiMHV9w-37" style="edgeStyle=orthogonalEdgeStyle;rounded=0;orthogonalLoop=1;jettySize=auto;html=1;entryX=0;entryY=0.5;entryDx=0;entryDy=0;" parent="1" source="-9M-hio-9B55uMiMHV9w-38" target="-9M-hio-9B55uMiMHV9w-34" edge="1">
          <mxGeometry relative="1" as="geometry" />
        </mxCell>
        <mxCell id="-9M-hio-9B55uMiMHV9w-38" value="ユーザーC" style="rounded=0;whiteSpace=wrap;html=1;" parent="1" vertex="1">
          <mxGeometry x="565" y="900" width="120" height="60" as="geometry" />
        </mxCell>
        <mxCell id="-cxjXy8tfc9ZED2PCrBA-1" value="ユーザー" style="ellipse;whiteSpace=wrap;html=1;aspect=fixed;" vertex="1" parent="1">
          <mxGeometry x="130" y="-110" width="80" height="80" as="geometry" />
        </mxCell>
        <mxCell id="-cxjXy8tfc9ZED2PCrBA-2" value="ユーザー" style="ellipse;whiteSpace=wrap;html=1;aspect=fixed;" vertex="1" parent="1">
          <mxGeometry x="225" y="-110" width="80" height="80" as="geometry" />
        </mxCell>
        <mxCell id="-cxjXy8tfc9ZED2PCrBA-3" value="ユーザー" style="ellipse;whiteSpace=wrap;html=1;aspect=fixed;" vertex="1" parent="1">
          <mxGeometry x="320" y="-110" width="80" height="80" as="geometry" />
        </mxCell>
        <mxCell id="-cxjXy8tfc9ZED2PCrBA-10" value="" style="group" vertex="1" connectable="0" parent="1">
          <mxGeometry x="-310" y="230" width="250" height="240" as="geometry" />
        </mxCell>
        <mxCell id="-cxjXy8tfc9ZED2PCrBA-9" value="共通の空き、趣味を発見" style="whiteSpace=wrap;html=1;aspect=fixed;" vertex="1" parent="-cxjXy8tfc9ZED2PCrBA-10">
          <mxGeometry x="10" y="30" width="240" height="240" as="geometry" />
        </mxCell>
        <mxCell id="-9M-hio-9B55uMiMHV9w-8" value="&lt;h1&gt;要素&lt;/h1&gt;&lt;div&gt;共通の趣味：スポーツ、芸術&lt;/div&gt;&lt;div&gt;共通の空き：&lt;/div&gt;&lt;div&gt;１０月２３日&lt;/div&gt;&lt;p&gt;&lt;br&gt;&lt;/p&gt;" style="text;html=1;strokeColor=none;fillColor=none;spacing=5;spacingTop=-20;whiteSpace=wrap;overflow=hidden;rounded=0;" parent="-cxjXy8tfc9ZED2PCrBA-10" vertex="1">
          <mxGeometry x="23.44" y="22.5" width="146.56" height="117.5" as="geometry" />
        </mxCell>
        <mxCell id="-cxjXy8tfc9ZED2PCrBA-13" value="全員の予定で共通した日があった" style="edgeStyle=orthogonalEdgeStyle;rounded=0;orthogonalLoop=1;jettySize=auto;html=1;" edge="1" parent="1" source="-cxjXy8tfc9ZED2PCrBA-9">
          <mxGeometry relative="1" as="geometry">
            <mxPoint x="-190" y="700" as="targetPoint" />
          </mxGeometry>
        </mxCell>
        <mxCell id="-cxjXy8tfc9ZED2PCrBA-62" style="edgeStyle=orthogonalEdgeStyle;rounded=0;orthogonalLoop=1;jettySize=auto;html=1;fontSize=16;" edge="1" parent="1" source="-cxjXy8tfc9ZED2PCrBA-39" target="-cxjXy8tfc9ZED2PCrBA-61">
          <mxGeometry relative="1" as="geometry" />
        </mxCell>
        <mxCell id="-cxjXy8tfc9ZED2PCrBA-39" value="" style="shape=ext;double=1;rounded=1;whiteSpace=wrap;html=1;" vertex="1" parent="1">
          <mxGeometry x="-530" y="690" width="720" height="760" as="geometry" />
        </mxCell>
        <mxCell id="-cxjXy8tfc9ZED2PCrBA-18" value="予定が全員合ったグループ" style="shape=table;startSize=30;container=1;collapsible=0;childLayout=tableLayout;fontStyle=1;align=center;pointerEvents=1;" vertex="1" parent="1">
          <mxGeometry x="-500" y="750" width="660" height="270" as="geometry" />
        </mxCell>
        <mxCell id="-cxjXy8tfc9ZED2PCrBA-19" value="" style="shape=partialRectangle;html=1;whiteSpace=wrap;collapsible=0;dropTarget=0;pointerEvents=0;fillColor=none;top=0;left=0;bottom=0;right=0;points=[[0,0.5],[1,0.5]];portConstraint=eastwest;" vertex="1" parent="-cxjXy8tfc9ZED2PCrBA-18">
          <mxGeometry y="30" width="660" height="80" as="geometry" />
        </mxCell>
        <mxCell id="-cxjXy8tfc9ZED2PCrBA-20" value="グループID" style="shape=partialRectangle;html=1;whiteSpace=wrap;connectable=0;fillColor=none;top=0;left=0;bottom=0;right=0;overflow=hidden;pointerEvents=1;" vertex="1" parent="-cxjXy8tfc9ZED2PCrBA-19">
          <mxGeometry width="110" height="80" as="geometry">
            <mxRectangle width="110" height="80" as="alternateBounds" />
          </mxGeometry>
        </mxCell>
        <mxCell id="-cxjXy8tfc9ZED2PCrBA-21" value="ジャンル" style="shape=partialRectangle;html=1;whiteSpace=wrap;connectable=0;fillColor=none;top=0;left=0;bottom=0;right=0;overflow=hidden;pointerEvents=1;" vertex="1" parent="-cxjXy8tfc9ZED2PCrBA-19">
          <mxGeometry x="110" width="110" height="80" as="geometry">
            <mxRectangle width="110" height="80" as="alternateBounds" />
          </mxGeometry>
        </mxCell>
        <mxCell id="-cxjXy8tfc9ZED2PCrBA-22" value="日程" style="shape=partialRectangle;html=1;whiteSpace=wrap;connectable=0;fillColor=none;top=0;left=0;bottom=0;right=0;overflow=hidden;pointerEvents=1;" vertex="1" parent="-cxjXy8tfc9ZED2PCrBA-19">
          <mxGeometry x="220" width="220" height="80" as="geometry">
            <mxRectangle width="220" height="80" as="alternateBounds" />
          </mxGeometry>
        </mxCell>
        <mxCell id="-cxjXy8tfc9ZED2PCrBA-34" value="ボタン" style="shape=partialRectangle;html=1;whiteSpace=wrap;connectable=0;fillColor=none;top=0;left=0;bottom=0;right=0;overflow=hidden;pointerEvents=1;" vertex="1" parent="-cxjXy8tfc9ZED2PCrBA-19">
          <mxGeometry x="440" width="220" height="80" as="geometry">
            <mxRectangle width="220" height="80" as="alternateBounds" />
          </mxGeometry>
        </mxCell>
        <mxCell id="-cxjXy8tfc9ZED2PCrBA-23" value="" style="shape=partialRectangle;html=1;whiteSpace=wrap;collapsible=0;dropTarget=0;pointerEvents=0;fillColor=none;top=0;left=0;bottom=0;right=0;points=[[0,0.5],[1,0.5]];portConstraint=eastwest;" vertex="1" parent="-cxjXy8tfc9ZED2PCrBA-18">
          <mxGeometry y="110" width="660" height="80" as="geometry" />
        </mxCell>
        <mxCell id="-cxjXy8tfc9ZED2PCrBA-24" value="98439" style="shape=partialRectangle;html=1;whiteSpace=wrap;connectable=0;fillColor=none;top=0;left=0;bottom=0;right=0;overflow=hidden;pointerEvents=1;" vertex="1" parent="-cxjXy8tfc9ZED2PCrBA-23">
          <mxGeometry width="110" height="80" as="geometry">
            <mxRectangle width="110" height="80" as="alternateBounds" />
          </mxGeometry>
        </mxCell>
        <mxCell id="-cxjXy8tfc9ZED2PCrBA-25" value="スポーツ" style="shape=partialRectangle;html=1;whiteSpace=wrap;connectable=0;fillColor=none;top=0;left=0;bottom=0;right=0;overflow=hidden;pointerEvents=1;" vertex="1" parent="-cxjXy8tfc9ZED2PCrBA-23">
          <mxGeometry x="110" width="110" height="80" as="geometry">
            <mxRectangle width="110" height="80" as="alternateBounds" />
          </mxGeometry>
        </mxCell>
        <mxCell id="-cxjXy8tfc9ZED2PCrBA-26" value="2021/10/23&amp;nbsp;" style="shape=partialRectangle;html=1;whiteSpace=wrap;connectable=0;fillColor=none;top=0;left=0;bottom=0;right=0;overflow=hidden;pointerEvents=1;" vertex="1" parent="-cxjXy8tfc9ZED2PCrBA-23">
          <mxGeometry x="220" width="220" height="80" as="geometry">
            <mxRectangle width="220" height="80" as="alternateBounds" />
          </mxGeometry>
        </mxCell>
        <mxCell id="-cxjXy8tfc9ZED2PCrBA-35" style="shape=partialRectangle;html=1;whiteSpace=wrap;connectable=0;fillColor=none;top=0;left=0;bottom=0;right=0;overflow=hidden;pointerEvents=1;" vertex="1" parent="-cxjXy8tfc9ZED2PCrBA-23">
          <mxGeometry x="440" width="220" height="80" as="geometry">
            <mxRectangle width="220" height="80" as="alternateBounds" />
          </mxGeometry>
        </mxCell>
        <mxCell id="-cxjXy8tfc9ZED2PCrBA-27" value="" style="shape=partialRectangle;html=1;whiteSpace=wrap;collapsible=0;dropTarget=0;pointerEvents=0;fillColor=none;top=0;left=0;bottom=0;right=0;points=[[0,0.5],[1,0.5]];portConstraint=eastwest;" vertex="1" parent="-cxjXy8tfc9ZED2PCrBA-18">
          <mxGeometry y="190" width="660" height="80" as="geometry" />
        </mxCell>
        <mxCell id="-cxjXy8tfc9ZED2PCrBA-28" value="" style="shape=partialRectangle;html=1;whiteSpace=wrap;connectable=0;fillColor=none;top=0;left=0;bottom=0;right=0;overflow=hidden;pointerEvents=1;" vertex="1" parent="-cxjXy8tfc9ZED2PCrBA-27">
          <mxGeometry width="110" height="80" as="geometry">
            <mxRectangle width="110" height="80" as="alternateBounds" />
          </mxGeometry>
        </mxCell>
        <mxCell id="-cxjXy8tfc9ZED2PCrBA-29" value="" style="shape=partialRectangle;html=1;whiteSpace=wrap;connectable=0;fillColor=none;top=0;left=0;bottom=0;right=0;overflow=hidden;pointerEvents=1;" vertex="1" parent="-cxjXy8tfc9ZED2PCrBA-27">
          <mxGeometry x="110" width="110" height="80" as="geometry">
            <mxRectangle width="110" height="80" as="alternateBounds" />
          </mxGeometry>
        </mxCell>
        <mxCell id="-cxjXy8tfc9ZED2PCrBA-30" value="" style="shape=partialRectangle;html=1;whiteSpace=wrap;connectable=0;fillColor=none;top=0;left=0;bottom=0;right=0;overflow=hidden;pointerEvents=1;" vertex="1" parent="-cxjXy8tfc9ZED2PCrBA-27">
          <mxGeometry x="220" width="220" height="80" as="geometry">
            <mxRectangle width="220" height="80" as="alternateBounds" />
          </mxGeometry>
        </mxCell>
        <mxCell id="-cxjXy8tfc9ZED2PCrBA-36" style="shape=partialRectangle;html=1;whiteSpace=wrap;connectable=0;fillColor=none;top=0;left=0;bottom=0;right=0;overflow=hidden;pointerEvents=1;" vertex="1" parent="-cxjXy8tfc9ZED2PCrBA-27">
          <mxGeometry x="440" width="220" height="80" as="geometry">
            <mxRectangle width="220" height="80" as="alternateBounds" />
          </mxGeometry>
        </mxCell>
        <mxCell id="-cxjXy8tfc9ZED2PCrBA-43" value="&lt;span style=&quot;background-color: rgb(255 , 102 , 102)&quot;&gt;申し込み完了を通知する&lt;/span&gt;" style="rounded=1;whiteSpace=wrap;html=1;fillColor=#FF6666;" vertex="1" parent="1">
          <mxGeometry x="-10" y="870" width="120" height="60" as="geometry" />
        </mxCell>
        <mxCell id="-cxjXy8tfc9ZED2PCrBA-44" value="グループ検索" style="shape=table;startSize=30;container=1;collapsible=0;childLayout=tableLayout;fontStyle=1;align=center;pointerEvents=1;labelBackgroundColor=#FFFFFF;fillColor=#FFFFFF;" vertex="1" parent="1">
          <mxGeometry x="-500" y="1120" width="660" height="250" as="geometry" />
        </mxCell>
        <mxCell id="-cxjXy8tfc9ZED2PCrBA-45" value="" style="shape=partialRectangle;html=1;whiteSpace=wrap;collapsible=0;dropTarget=0;pointerEvents=0;fillColor=none;top=0;left=0;bottom=0;right=0;points=[[0,0.5],[1,0.5]];portConstraint=eastwest;labelBackgroundColor=#FF6666;" vertex="1" parent="-cxjXy8tfc9ZED2PCrBA-44">
          <mxGeometry y="30" width="660" height="74" as="geometry" />
        </mxCell>
        <mxCell id="-cxjXy8tfc9ZED2PCrBA-46" value="&lt;span style=&quot;background-color: rgb(255 , 255 , 255)&quot;&gt;ユーザーID&lt;br&gt;&lt;/span&gt;" style="shape=partialRectangle;html=1;whiteSpace=wrap;connectable=0;fillColor=none;top=0;left=0;bottom=0;right=0;overflow=hidden;pointerEvents=1;labelBackgroundColor=#FF6666;" vertex="1" parent="-cxjXy8tfc9ZED2PCrBA-45">
          <mxGeometry width="220" height="74" as="geometry">
            <mxRectangle width="220" height="74" as="alternateBounds" />
          </mxGeometry>
        </mxCell>
        <mxCell id="-cxjXy8tfc9ZED2PCrBA-47" value="&lt;span style=&quot;background-color: rgb(255 , 255 , 255)&quot;&gt;ユーザー名&lt;/span&gt;" style="shape=partialRectangle;html=1;whiteSpace=wrap;connectable=0;fillColor=none;top=0;left=0;bottom=0;right=0;overflow=hidden;pointerEvents=1;labelBackgroundColor=#FF6666;" vertex="1" parent="-cxjXy8tfc9ZED2PCrBA-45">
          <mxGeometry x="220" width="220" height="74" as="geometry">
            <mxRectangle width="220" height="74" as="alternateBounds" />
          </mxGeometry>
        </mxCell>
        <mxCell id="-cxjXy8tfc9ZED2PCrBA-48" value="" style="shape=partialRectangle;html=1;whiteSpace=wrap;connectable=0;fillColor=none;top=0;left=0;bottom=0;right=0;overflow=hidden;pointerEvents=1;labelBackgroundColor=#FF6666;" vertex="1" parent="-cxjXy8tfc9ZED2PCrBA-45">
          <mxGeometry x="440" width="220" height="74" as="geometry">
            <mxRectangle width="220" height="74" as="alternateBounds" />
          </mxGeometry>
        </mxCell>
        <mxCell id="-cxjXy8tfc9ZED2PCrBA-49" value="" style="shape=partialRectangle;html=1;whiteSpace=wrap;collapsible=0;dropTarget=0;pointerEvents=0;fillColor=none;top=0;left=0;bottom=0;right=0;points=[[0,0.5],[1,0.5]];portConstraint=eastwest;labelBackgroundColor=#FF6666;" vertex="1" parent="-cxjXy8tfc9ZED2PCrBA-44">
          <mxGeometry y="104" width="660" height="72" as="geometry" />
        </mxCell>
        <mxCell id="-cxjXy8tfc9ZED2PCrBA-50" value="" style="shape=partialRectangle;html=1;whiteSpace=wrap;connectable=0;fillColor=none;top=0;left=0;bottom=0;right=0;overflow=hidden;pointerEvents=1;labelBackgroundColor=#FF6666;" vertex="1" parent="-cxjXy8tfc9ZED2PCrBA-49">
          <mxGeometry width="220" height="72" as="geometry">
            <mxRectangle width="220" height="72" as="alternateBounds" />
          </mxGeometry>
        </mxCell>
        <mxCell id="-cxjXy8tfc9ZED2PCrBA-51" value="" style="shape=partialRectangle;html=1;whiteSpace=wrap;connectable=0;fillColor=none;top=0;left=0;bottom=0;right=0;overflow=hidden;pointerEvents=1;labelBackgroundColor=#FF6666;" vertex="1" parent="-cxjXy8tfc9ZED2PCrBA-49">
          <mxGeometry x="220" width="220" height="72" as="geometry">
            <mxRectangle width="220" height="72" as="alternateBounds" />
          </mxGeometry>
        </mxCell>
        <mxCell id="-cxjXy8tfc9ZED2PCrBA-52" value="" style="shape=partialRectangle;html=1;whiteSpace=wrap;connectable=0;fillColor=none;top=0;left=0;bottom=0;right=0;overflow=hidden;pointerEvents=1;labelBackgroundColor=#FF6666;" vertex="1" parent="-cxjXy8tfc9ZED2PCrBA-49">
          <mxGeometry x="440" width="220" height="72" as="geometry">
            <mxRectangle width="220" height="72" as="alternateBounds" />
          </mxGeometry>
        </mxCell>
        <mxCell id="-cxjXy8tfc9ZED2PCrBA-53" value="" style="shape=partialRectangle;html=1;whiteSpace=wrap;collapsible=0;dropTarget=0;pointerEvents=0;fillColor=none;top=0;left=0;bottom=0;right=0;points=[[0,0.5],[1,0.5]];portConstraint=eastwest;labelBackgroundColor=#FF6666;" vertex="1" parent="-cxjXy8tfc9ZED2PCrBA-44">
          <mxGeometry y="176" width="660" height="74" as="geometry" />
        </mxCell>
        <mxCell id="-cxjXy8tfc9ZED2PCrBA-54" value="" style="shape=partialRectangle;html=1;whiteSpace=wrap;connectable=0;fillColor=none;top=0;left=0;bottom=0;right=0;overflow=hidden;pointerEvents=1;labelBackgroundColor=#FF6666;" vertex="1" parent="-cxjXy8tfc9ZED2PCrBA-53">
          <mxGeometry width="220" height="74" as="geometry">
            <mxRectangle width="220" height="74" as="alternateBounds" />
          </mxGeometry>
        </mxCell>
        <mxCell id="-cxjXy8tfc9ZED2PCrBA-55" value="" style="shape=partialRectangle;html=1;whiteSpace=wrap;connectable=0;fillColor=none;top=0;left=0;bottom=0;right=0;overflow=hidden;pointerEvents=1;labelBackgroundColor=#FF6666;" vertex="1" parent="-cxjXy8tfc9ZED2PCrBA-53">
          <mxGeometry x="220" width="220" height="74" as="geometry">
            <mxRectangle width="220" height="74" as="alternateBounds" />
          </mxGeometry>
        </mxCell>
        <mxCell id="-cxjXy8tfc9ZED2PCrBA-56" value="" style="shape=partialRectangle;html=1;whiteSpace=wrap;connectable=0;fillColor=none;top=0;left=0;bottom=0;right=0;overflow=hidden;pointerEvents=1;labelBackgroundColor=#FF6666;" vertex="1" parent="-cxjXy8tfc9ZED2PCrBA-53">
          <mxGeometry x="440" width="220" height="74" as="geometry">
            <mxRectangle width="220" height="74" as="alternateBounds" />
          </mxGeometry>
        </mxCell>
        <mxCell id="-cxjXy8tfc9ZED2PCrBA-58" value="Search" style="strokeWidth=1;shadow=0;dashed=0;align=center;html=1;shape=mxgraph.mockup.forms.searchBox;strokeColor=#999999;mainText=;strokeColor2=#008cff;fontColor=#666666;fontSize=17;align=left;spacingLeft=3;labelBackgroundColor=#FFFFFF;fillColor=#FFFFFF;" vertex="1" parent="1">
          <mxGeometry x="10" y="1055" width="150" height="30" as="geometry" />
        </mxCell>
        <mxCell id="-cxjXy8tfc9ZED2PCrBA-61" value="&lt;font style=&quot;font-size: 16px&quot;&gt;申し込みする&lt;/font&gt;" style="rounded=0;whiteSpace=wrap;html=1;labelBackgroundColor=#FFFFFF;fillColor=#FFFFFF;" vertex="1" parent="1">
          <mxGeometry x="-1280" y="930" width="500" height="180" as="geometry" />
        </mxCell>
      </root>
    </mxGraphModel>
  </diagram>
</mxfile>
